<?xml version="1.0" standalone="no"?>
<!DOCTYPE svg PUBLIC "-//W3C//DTD SVG 1.1//EN" "http://www.w3.org/Graphics/SVG/1.1/DTD/svg11.dtd" >
<svg xmlns="http://www.w3.org/2000/svg">
<metadata></metadata>
<defs>
<font id="tnua-librelibre-bold" horiz-adv-x="868" vert-adv-y="2048" >
<font-face units-per-em="2048" ascent="1638" descent="-410" />
<missing-glyph horiz-adv-x="1200" />
<glyph horiz-adv-x="0" vert-adv-y="0" />
<glyph unicode="&#xd;" horiz-adv-x="682" />
<glyph unicode=" " horiz-adv-x="1200" vert-adv-y="0" />
<glyph unicode="!" horiz-adv-x="476" vert-adv-y="80" d="M40 -10v-92v-202h388v202v92v202h-388v-202zM42 274h390v202l4 926v202h-388v-202l-6 -926v-202z" />
<glyph unicode="#" horiz-adv-x="1796" vert-adv-y="80" d="M40 176l194 -2h102l-50 -204l-50 -198l378 -98l48 194l76 304h92l-50 -202l-48 -198l376 -98l50 194l72 298h198h194l2 404h-194h-100l36 146h192h194l4 404h-196h-94l48 202l50 194l-378 102l-48 -198l-72 -298h-96l50 200l48 194l-376 102l-50 -198l-72 -294l-202 2 l-194 2l-2 -404l194 -2h104l-36 -148l-198 2l-194 2zM834 572l36 150l96 -4l-36 -146h-96z" />
<glyph unicode="$" horiz-adv-x="1424" vert-adv-y="80" d="M40 -154l184 -64q114 -40 268 -62v-150v-202h388v202v150q122 24 214 86q98 64 160 185t64 263t-61 264t-161 184q-92 58 -216 86v244q48 -10 95 -23t71 -19l24 -8l182 -68l132 380l-186 68q-138 54 -318 84v42v202h-388v-202v-34q-98 -18 -180 -66q-102 -60 -168 -181 t-66 -261q2 -138 71 -256t167 -176q76 -42 176 -68v-316l-148 36l-184 64zM468 952q-2 50 3 61t21 19v-156q-16 6 -20 17t-4 59zM880 144v216q18 -6 18 -8q4 -2 11 -6t9 -5t6 -5t4 -9t3 -14t1 -21t0 -32q-2 -44 -8 -66t-12 -28t-26 -20q-2 0 -3 -1t-3 -1z" />
<glyph unicode="%" horiz-adv-x="2248" vert-adv-y="80" d="M40 1085q0 -219 152 -377t363 -158t363 158t152 377t-152 377t-363 158t-363 -158t-152 -377zM428 1085q0 57 36 94t91 37t91 -37t36 -94t-36 -94t-91 -37t-91 37t-36 94zM432 -184l332 -210l100 174l322 560q-10 -50 -10 -104q0 -220 152 -377t364 -157t364 157t152 377 t-152 378t-364 158q-184 0 -330 -128l400 696l100 172l-332 210l-100 -176l-900 -1560zM1566 236q0 56 36 94t90 38t90 -38t36 -94t-36 -93t-90 -37t-90 37t-36 93z" />
<glyph unicode="&#x26;" horiz-adv-x="1768" vert-adv-y="80" d="M44 390q-16 -144 30 -280t136 -236q114 -130 273 -194t334 -41t313 141l90 76l76 -78l138 -142l274 286l-136 140l-78 82q136 188 188 410l46 198l-380 94l-46 -196q-28 -126 -82 -218l-438 454l-2 2q-116 128 -132 238q-8 66 26 108q22 28 56 43t87 7t107 -48l160 -116 l220 330l-156 118q-168 120 -366 118q-30 0 -50 -2q-222 -24 -356 -190q-66 -84 -96 -195t-14 -229q8 -70 40 -154q-232 -254 -262 -526zM430 342q12 106 104 228l412 -426l-64 -54q-76 -62 -195 -43t-193 101q-76 86 -64 194z" />
<glyph unicode="'" horiz-adv-x="468" vert-adv-y="80" d="M40 790h388v202v452v202h-388v-202v-452v-202z" />
<glyph unicode="(" horiz-adv-x="832" vert-adv-y="80" d="M46 378q10 -118 37 -229t77 -229t88 -195t108 -209l96 -178l340 198l-96 176q-128 240 -189 393t-75 311q-16 186 41 417t219 551l90 178l-346 188l-90 -180q-180 -360 -251 -649t-49 -543z" />
<glyph unicode=")" horiz-adv-x="832" vert-adv-y="80" d="M40 -464l340 -198l94 178q72 132 109 209t87 195t78 229t38 229q22 254 -49 543t-253 649l-90 180l-344 -188l90 -178q160 -320 218 -551t42 -417q-14 -158 -76 -311t-190 -393z" />
<glyph unicode="*" horiz-adv-x="1072" vert-adv-y="80" d="M40 1106l334 108l104 348l204 -298l350 6l-210 -292l114 -346l-334 118l-280 -218l4 364z" />
<glyph unicode="+" horiz-adv-x="1674" vert-adv-y="80" d="M40 338h194h408v-424v-202h390v202v424h408h194v404h-194h-408v424v202h-390v-202v-424h-408h-194v-404z" />
<glyph unicode="," horiz-adv-x="672" vert-adv-y="80" d="M40 -498l344 -186l90 178l136 272l22 92v134v202h-388v-202v-84l-114 -226z" />
<glyph unicode="-" vert-adv-y="80" d="M40 254h194l396 -4h194l4 404h-196l-396 4h-194z" />
<glyph unicode="." horiz-adv-x="468" vert-adv-y="80" d="M40 -10v-92v-202h388v202v92v202h-388v-202z" />
<glyph unicode="/" horiz-adv-x="1118" vert-adv-y="180" d="M40 -336l370 -128l60 192l550 1752l58 192l-370 126l-60 -192l-550 -1752z" />
<glyph unicode="0" horiz-adv-x="1260" vert-adv-y="40" d="M40 590q0 -376 128 -626q70 -134 184 -219t252 -93q140 -8 261 72t201 216q154 264 154 638q0 398 -112 632q-66 140 -192 228t-288 94t-292 -80t-194 -228q-102 -222 -102 -634zM312 590q0 348 76 514q40 86 87 118t143 28q100 -4 153 -42t95 -124q82 -172 82 -506 q0 -296 -114 -490q-94 -160 -218 -154q-64 4 -114 42t-92 122q-98 188 -98 492z" />
<glyph unicode="1" horiz-adv-x="1108" vert-adv-y="40" d="M40 1404l52 -278l132 24l248 48v-1224h-232h-136v-282h136h692h136v282h-136h-188v1396l-162 140l-408 -82z" />
<glyph unicode="2" horiz-adv-x="1300" vert-adv-y="40" d="M40 -50l80 -256l1004 -2h136v282h-136l-628 4q196 174 270 254q242 262 346 474q152 318 16 546q-86 148 -212 222t-266 86q-84 8 -160 -4q-120 -20 -244 -76q-30 -14 -66 -34h-102v-140l86 -132l68 -8q14 0 22 2q2 2 5 4t5 2q4 2 10 4q4 0 4 2q2 0 4 2t4 2q2 2 7 5t9 5 q10 6 54 26q90 40 178 54q116 20 202 -11t162 -159q54 -94 -30 -270t-296 -404q-110 -118 -243 -238t-211 -182z" />
<glyph unicode="3" horiz-adv-x="1300" vert-adv-y="40" d="M40 -268l132 -34q348 -94 642 -26q192 44 304 156q66 66 104 160t38 198q-2 210 -144 360q-52 56 -126 100q74 46 116 94q62 68 94 166t24 208q-10 112 -68 202t-142 138q-132 78 -330 80q-96 2 -200 -12t-160 -30l-56 -16l-130 -36l72 -274l132 40q18 6 52 14t123 21 t161 11q130 -2 202 -46q38 -20 53 -44t21 -76q4 -56 -7 -90t-39 -64q-50 -56 -158 -92q-134 -44 -282 -42h-2l-4 -142l-4 -140h2q148 -10 284 -62q116 -44 178 -108q66 -68 66 -162t-56 -151t-176 -83q-124 -26 -263 -18t-253 38l-132 36z" />
<glyph unicode="4" horiz-adv-x="1338" vert-adv-y="40" d="M40 352l112 -224h592v-294v-142h272v142v294h146h136v284h-136h-146v974l-248 80zM406 412l338 518v-518h-338z" />
<glyph unicode="5" horiz-adv-x="1240" vert-adv-y="40" d="M40 -272l134 -34q10 -2 27 -6t72 -12t110 -12t133 -4t148 10q238 32 372 156q84 78 128 198t34 266q-16 284 -176 444q-132 132 -336 164q-102 18 -254 0v312h554h136v282h-136h-690l-136 -142v-616l172 -136q6 2 18 5t48 9t72 10t84 4t90 -8q122 -18 188 -86 q84 -84 94 -256q6 -94 -13 -147t-59 -91q-74 -68 -224 -88q-98 -10 -186 -5t-148 15l-62 12l-134 30z" />
<glyph unicode="6" horiz-adv-x="1214" vert-adv-y="40" d="M41 693q-1 -67 1 -182t2 -167v-142h18q42 -220 196 -365t360 -145q156 0 284 90t200 238t72 318q0 172 -73 321t-204 238t-287 89q-146 0 -276 -84q14 104 38 160q26 58 61 94t97 60q146 62 426 28l132 -14l32 280l-136 18q-94 10 -162 12t-146 -6q-138 -10 -246 -54 q-106 -44 -184 -122t-122 -176q-32 -74 -51 -154t-25 -174t-7 -161zM318 338q0 156 87 261t205 105t205 -105t87 -261q0 -158 -84 -261t-200 -103q-118 0 -209 105t-91 259z" />
<glyph unicode="7" horiz-adv-x="1198" vert-adv-y="40" d="M40 1244h136h658l-486 -1360l-46 -134l256 -98l46 134l554 1552l-126 190h-856h-136v-284z" />
<glyph unicode="8" horiz-adv-x="1254" vert-adv-y="40" d="M40 250q0 -236 120 -378q148 -180 464 -180q312 0 466 174q124 142 124 376q0 106 -41 203t-117 169q-34 30 -58 48q22 22 30 32q102 126 102 330q0 122 -58 235t-176 189t-268 80q-116 2 -214 -41t-166 -119q-126 -144 -126 -338q0 -202 100 -330q4 -6 9 -11l11 -11 l10 -10q-30 -20 -56 -44q-76 -72 -116 -171t-40 -203zM312 250q0 102 66 164q80 76 242 74q168 -4 254 -84q68 -64 68 -162q0 -126 -54 -186q-70 -82 -264 -82q-192 0 -260 84q-52 62 -52 192zM394 1030q0 88 54 148q60 70 172 66q126 -2 182 -68t56 -152q0 -100 -38 -148 q-52 -66 -196 -66q-140 0 -190 66q-40 50 -40 154z" />
<glyph unicode="9" horiz-adv-x="1214" vert-adv-y="40" d="M40 881q0 -171 73 -320t204 -239t287 -90q146 0 276 86q-14 -106 -38 -162q-26 -56 -61 -92t-97 -62q-148 -60 -426 -28l-132 16l-32 -280l136 -18q340 -40 554 48q210 86 304 298q32 72 51 152t26 176t8 160t-1 183t-2 167v142h-18q-40 218 -192 364t-356 146 q-156 0 -287 -89t-204 -238t-73 -320zM312 881q0 155 87 259t205 104t205 -104t87 -259t-88 -261t-205 -106t-204 106t-87 261z" />
<glyph unicode=":" horiz-adv-x="478" vert-adv-y="80" d="M40 630h388v202v92v202h-388v-202v-92v-202zM50 -10v-92v-202h388v202v92v202h-388v-202z" />
<glyph unicode=";" horiz-adv-x="672" vert-adv-y="80" d="M40 -498l344 -186l90 178l136 270l22 94v134v202h-388v-202v-88l-112 -222zM244 630h388v202v92v202h-388v-202v-92v-202z" />
<glyph unicode="&#x3c;" horiz-adv-x="1606" vert-adv-y="80" d="M40 356l1196 -480l180 -70l140 376l-182 72l-722 292l732 290l182 72l-138 376l-184 -70l-1204 -480v-378z" />
<glyph unicode="=" horiz-adv-x="1678" vert-adv-y="80" d="M40 98l194 -2l1208 -4h194l2 404h-194l-1208 4l-194 2zM40 590h194l1208 -4h194l2 402h-194l-1208 6h-194z" />
<glyph unicode="&#x3e;" horiz-adv-x="1606" vert-adv-y="80" d="M40 908l180 -72l732 -290l-722 -292l-182 -72l140 -376l182 70l1196 480l-2 378l-1206 480l-180 70z" />
<glyph unicode="?" horiz-adv-x="1268" vert-adv-y="80" d="M40 1430l194 -350l170 100q168 100 288 66q86 -24 126 -110q36 -82 10 -144q-16 -34 -43 -55t-93 -31l-50 -16q-116 -54 -172 -194q-34 -84 -42 -190q-4 -58 -2 -105t4 -77l4 -30l384 54q-2 6 -3 18t-2 47t1 61q4 30 16 66q122 38 215 113t137 175q50 122 45 246t-58 239 t-150 200t-223 123q-104 28 -210 22q-24 -2 -72 -10q-156 -28 -304 -116zM428 -10v-92v-202h390v202v92v202h-390v-202zM800 530q4 0 10 3l10 5q-6 -8 -18 -14z" />
<glyph unicode="@" horiz-adv-x="2230" vert-adv-y="80" d="M60 644q-56 -314 42 -606q76 -222 257 -418t475 -322q38 -16 116 -36q114 -28 226 -30q160 -4 318 50t282 192l134 150l-224 216q220 46 322 156q132 146 170 404q50 332 -80 616q-94 206 -302 356t-518 192l-50 8q-42 4 -120 2q-198 -2 -366 -60q-110 -38 -212 -106 t-198 -172t-168 -257t-104 -335zM444 570q24 138 67 240t102 163t117 96t134 61q112 38 250 40q44 2 80 -2q8 0 18 -1t18 -1q258 -36 394 -156l-312 -4v-30q-106 56 -214 60q-144 6 -265 -68t-181 -186q-86 -160 -86 -396q0 -226 110 -382q66 -92 176 -148t238 -56 q178 0 320 116l98 -104q8 0 23 4t23 4l-62 -68q-110 -124 -306 -118q-70 2 -146 20q-40 10 -58 18q-228 98 -345 224t-167 276q-64 188 -26 398zM956 386q0 128 38 202q4 6 9 16l7 14t6 8t10 6t14 4h44q40 -2 58 -9t21 -11t17 -30q28 -60 28 -200q0 -98 -32 -146q0 -2 -3 -7 t-5 -7t-5 -6t-5 -5t-7 -4t-10 -3t-13 -2t-17 -2h-21q-36 0 -56 6t-27 12t-17 22q-34 48 -34 142zM1702 808v116q26 -40 44 -78q28 -66 42 -147t12 -137t-6 -98q-20 -136 -68 -190q-2 -2 -10 -6t-10 -6z" />
<glyph unicode="[" horiz-adv-x="726" vert-adv-y="80" d="M40 -414l194 -202h258h194v404h-194h-64v1520h50h194v404h-194h-244l-194 -202v-1924z" />
<glyph unicode="\" horiz-adv-x="1098" vert-adv-y="80" d="M40 1550l58 -192l530 -1726l60 -192l370 120l-58 192l-530 1728l-60 194z" />
<glyph unicode="]" horiz-adv-x="726" vert-adv-y="80" d="M40 -212v-404h194h258l194 202v1924l-194 202h-244h-194v-404h194h50v-1520h-64h-194z" />
<glyph unicode="^" horiz-adv-x="1720" vert-adv-y="80" d="M40 944l270 -290l138 138l400 402l426 -404l146 -134l260 298l-144 136l-560 528l-268 -2l-530 -530z" />
<glyph unicode="_" horiz-adv-x="1422" vert-adv-y="80" d="M40 -460v-404h194h952h196v404h-196h-952h-194z" />
<glyph unicode="{" horiz-adv-x="1086" vert-adv-y="80" d="M40 722l2 -402q54 -8 122 -30q46 -16 89 -42t55 -42q-4 4 -4 -4v-30q6 -104 -2 -184q0 -16 -7 -71t-8 -80t0 -78t9 -89t27 -84t47 -92q62 -88 147 -139t167 -59q44 -6 89 0t69 14l24 8l180 74l-142 376l-182 -76q2 0 4 2t0 2h-5t-6 1t-10 9t-17 22l2 28q-6 108 2 194 q0 16 6 69t8 79t1 78t-9 88t-26 84t-46 92q-10 14 -33 32t-31 26q42 44 64 84q20 40 32 82t16 66t8 72q4 52 6 212q2 96 10 191t12 109l22 4l190 -44l82 394l-190 44q-8 2 -23 4t-64 5t-89 -7q-84 -16 -168 -83t-122 -173q-16 -44 -26 -87t-14 -95t-6 -80t-2 -93v-81 q-2 -126 -8 -184q0 -10 -1 -18t-1 -10v-5v-5q-2 0 -38 -21t-66 -29q-34 -10 -70 -17t-56 -9z" />
<glyph unicode="|" horiz-adv-x="474" vert-adv-y="80" d="M40 -628v-202h388v202l6 2122v202h-390v-202z" />
<glyph unicode="}" horiz-adv-x="1086" vert-adv-y="80" d="M40 -608l182 -74q10 -4 26 -9t63 -12t91 -1q80 8 166 59t148 139q28 44 47 92t27 84t9 89t-1 78t-8 80t-6 71q-6 56 0 208q-2 12 -4 10q12 16 54 42t88 42q30 10 60 18t46 10l16 2l2 402q-70 8 -144 28q-30 8 -66 29t-38 21q-4 16 -4 38q-6 58 -8 184v82t-1 90t-5 82 t-14 94t-26 88q-38 106 -123 173t-169 83q-50 8 -89 8t-63 -6l-26 -4l-188 -44l82 -394l190 44q10 -2 22 -4q4 -14 12 -109t10 -191q2 -126 8 -212q2 -2 3 -20t1 -22t2 -20t3 -22t4 -20t5 -22t6 -22t8 -24t10 -22t12 -26q22 -40 64 -84q-8 -8 -31 -26t-33 -32 q-34 -52 -54 -104t-23 -112t-3 -91t8 -102t10 -81q4 -58 0 -214q0 -12 2 -8q-10 -14 -17 -22t-9 -9t-6 -1h-4v-4l-180 76z" />
<glyph unicode="~" horiz-adv-x="1822" vert-adv-y="80" d="M40 540l226 -330l158 118q64 48 150 76q142 46 226 -18q90 -68 198 -97t193 -24t171 27q66 18 130 47t96 49l32 20l162 110l-212 340l-162 -112q-62 -40 -146 -62q-144 -40 -230 28q-92 70 -203 96t-198 17t-173 -37q-68 -22 -133 -55t-95 -55l-32 -22z" />
<glyph unicode="&#xa0;" horiz-adv-x="1200" vert-adv-y="0" />
<glyph unicode="&#xad;" vert-adv-y="80" d="M40 254h194l396 -4h194l4 404h-196l-396 4h-194z" />
<glyph unicode="&#x5d0;" horiz-adv-x="1620" vert-adv-y="180" d="M48 -140l14 -202l386 28l-12 202q-38 544 132 742q6 8 18 20l126 -200l18 -124l56 8l364 -572l106 -168l324 222l-106 168l-298 466q108 64 180 154q126 156 168 384q22 112 23 230t-9 182l-8 62l-34 200l-384 -74l36 -198q24 -164 -6 -324q-24 -128 -84 -204 q-38 -48 -94 -74l-120 188l-4 134l-78 -4l-276 432l-106 166l-326 -222l110 -168l206 -326q-56 -42 -94 -88q-278 -326 -228 -1040z" />
<glyph unicode="&#x5d1;" horiz-adv-x="1958" vert-adv-y="180" d="M40 1620l14 -402l194 8q456 16 632 -16q92 -16 127 -36t59 -62q54 -94 62 -378q6 -144 -2 -662l-886 -2h-196l4 -404h194l1268 4h214l194 2l-2 404l-194 -2h-208q8 516 4 672q-8 196 -32 329t-88 243q-66 116 -184 189t-266 99q-130 24 -316 28q-100 2 -186 0 q-34 0 -212 -8z" />
<glyph unicode="&#x5d2;" horiz-adv-x="1428" vert-adv-y="180" d="M40 1624l8 -404l194 2q260 4 334 -6q78 -12 102 -38q16 -16 31 -70t31 -177t24 -287q-26 -16 -34 -22q-94 -68 -219 -213t-317 -415l-118 -162l314 -242l114 164q184 258 326 412q42 -158 126 -370l72 -186l360 154l-72 186q-104 264 -136 424l14 8l-26 60v4 q-8 60 -10 118q-4 138 -7 207t-11 172t-20 161t-33 129t-53 123t-76 100q-118 126 -328 158q-90 14 -184 16q-12 0 -212 -4z" />
<glyph unicode="&#x5d3;" horiz-adv-x="1950" vert-adv-y="180" d="M40 1222h194h838l10 -1350l2 -202l390 2l-4 202l-8 1348h254h194v404h-194h-1482h-194v-404z" />
<glyph unicode="&#x5d4;" horiz-adv-x="1808" vert-adv-y="180" d="M40 1624l8 -404l194 2q84 2 245 6t233 6t166 1t154 -5q210 -14 258 -72q58 -70 74 -342q4 -96 6 -221t1 -362t-1 -361v-202l390 2v202q-2 130 -1 360t0 363t-7 243q-12 206 -46 342t-122 240q-88 106 -218 153t-306 59q-140 10 -362 6q-66 -2 -223 -7t-249 -7zM228 852 l2 -202l4 -778v-202l390 2v202l-6 778l-2 202z" />
<glyph unicode="&#x5d5;" horiz-adv-x="486" vert-adv-y="180" d="M40 1626l2 -200l12 -1554l4 -202l388 4l-2 202l-12 1552l-4 202z" />
<glyph unicode="&#x5d6;" horiz-adv-x="1186" vert-adv-y="180" d="M40 1458l6 -53l6 -53l21 -34l21 -34l7 -6q7 -6 16 -14t13 -10q6 -4 24 -14q24 -10 44 -14q18 -4 46 -6h88q20 0 70 1t68 3q-72 -198 -68 -462q2 -134 18 -339t23 -300t-5 -209l-38 -200l380 -78l40 198q20 106 20 238t-11 237t-24 239t-15 220q-4 226 44 334q26 56 58 84 t102 44q28 8 44 16q18 8 30 18l46 50l32 122l-42 118q-36 36 -48 46q-12 6 -30 14q-12 6 -32 10q-18 6 -22 6q-8 2 -22 1t-16 -1h-86q-240 -2 -262 -4q-98 0 -198 -2l-12 48l-188 -50q-22 -6 -36 -12q-20 -10 -42 -28q-4 -4 -13 -14t-16 -18l-7 -8l-17 -42zM832 1584l4 6 q22 14 30 16q18 10 42 16q-16 -4 -41 -19t-35 -19z" />
<glyph unicode="&#x5d7;" horiz-adv-x="1632" vert-adv-y="180" d="M40 1418q18 -388 26 -772q8 -316 6 -526q0 -12 -1 -26t-1 -22h-26l8 -404l194 2q112 4 170 110q16 30 24 62t12 82q6 60 8 190q4 222 -4 542q-6 242 -20 572q352 14 440 6q98 -12 142 -30t72 -54q64 -86 90 -366q18 -220 22 -912l2 -202l388 4l-2 202q-2 698 -24 946 q-18 198 -56 335t-116 243q-152 200 -478 234q-88 10 -210 10t-205 -3t-277 -15z" />
<glyph unicode="&#x5d8;" horiz-adv-x="1756" vert-adv-y="180" d="M39 827q1 -79 5 -157q12 -242 62 -431t170 -333q184 -226 570 -236q286 -6 474 78q86 40 162 121t124 191q98 222 110 612q8 224 -52 415t-182 325q-124 138 -302 192t-364 6l-188 -48l96 -392l190 48q94 24 160 4t124 -84q62 -70 99 -186t33 -264q-10 -312 -76 -462 q-24 -54 -42 -73t-48 -33q-26 -12 -124 -30t-184 -16q-98 4 -176 30t-108 64q-56 68 -93 208t-45 318q-4 56 -4 122t1 116t4 129t5 116t8 124t6 111l14 202l-390 26l-12 -202q0 -12 -8 -129t-10 -162t-6 -143t-3 -177z" />
<glyph unicode="&#x5d9;" horiz-adv-x="488" vert-adv-y="180" d="M40 1616l4 -202l14 -810l2 -202l388 8l-2 202l-12 808l-6 202z" />
<glyph unicode="&#x5da;" horiz-adv-x="1654" vert-adv-y="180" d="M40 1224h194q524 0 674 -32q102 -20 143 -46t75 -90q64 -122 79 -563t-7 -1265l-4 -200l388 -12l6 202q4 154 10 384t9 348t6 290t-1 266t-13 218t-26 203t-43 164t-62 155q-70 138 -199 224t-289 120q-90 18 -209 26t-208 10t-269 2q-40 -2 -60 -2h-194v-402z" />
<glyph unicode="&#x5db;" horiz-adv-x="1648" vert-adv-y="180" d="M40 -316l194 -10q34 -2 98 -6q160 -8 237 -11t198 -3t194 12t158 37t155 67q96 54 168 149t110 211q62 196 54 546q-6 346 -116 558q-114 218 -338 314q-170 76 -424 86q-124 2 -149 2t-151 -4t-154 -6l-196 -4l10 -404l194 6q230 10 428 1t292 -49q52 -24 85 -54t61 -84 q66 -126 70 -370q6 -280 -36 -412q-18 -58 -39 -85t-59 -49q-146 -84 -830 -48l-194 10z" />
<glyph unicode="&#x5dc;" horiz-adv-x="1650" vert-adv-y="180" d="M40 1428l194 -204q284 4 568 4h400h18q-4 -176 -44 -278q-8 -24 -60 -84t-122 -126q-8 -6 -56 -50t-67 -64t-54 -61t-58 -82t-41 -91q-28 -78 -41 -165t-9 -155t11 -125t15 -89l10 -30l46 -198l376 94l-44 196q-32 242 0 328q2 8 24 36t63 73t85 87q6 4 49 44t56 53 t48 51t53 63t41 65t37 82q64 166 72 416q2 100 -6 170q-4 42 -14 78q-8 30 -22 54q-12 24 -20 35t-37 34t-69 33q-26 6 -42 8h-8h-8h-20h-24t-57 1t-81 1h-400q-110 0 -230 -1t-140 -1l2 492l2 202l-388 4l-4 -202z" />
<glyph unicode="&#x5dd;" horiz-adv-x="1822" vert-adv-y="180" d="M40 1624l8 -404l154 2l10 -1352l188 -200q492 -14 1188 0l70 2h110v4h14l-10 404h-4q0 604 -8 760q-12 204 -47 341t-123 241q-88 106 -217 153t-305 59q-140 10 -362 6q-66 -2 -219 -7t-241 -7h-6h-6h-36zM590 1232q48 2 122 4q202 4 328 -6q208 -14 258 -72 q58 -70 74 -342q8 -142 6 -744q-426 -6 -780 2q-6 532 -8 1158z" />
<glyph unicode="&#x5de;" horiz-adv-x="1936" vert-adv-y="180" d="M40 1518l126 -154l222 -268q-90 -170 -158 -398q-56 -186 -90 -389t-42 -315l-6 -112l-10 -202l388 -18l8 202q2 40 8 110t37 258t79 348q86 296 220 468q26 34 34 44q4 4 14 13t12 11v4q114 112 260 122q94 8 139 -19t93 -107q92 -154 122 -456q26 -272 -4 -586h-490 h-194v-404h194h666l192 174q2 18 6 49t13 127t13 193t3 231t-13 256q-38 396 -178 628q-90 152 -246 242t-342 76q-270 -18 -486 -222l-170 202l-126 154z" />
<glyph unicode="&#x5df;" horiz-adv-x="476" vert-adv-y="180" d="M40 -776v-202h388v202l8 2202v200l-388 4v-202z" />
<glyph unicode="&#x5e0;" horiz-adv-x="1324" vert-adv-y="180" d="M40 74v-404h194h856l194 212q-2 52 -10 257t-12 274t-14 212t-24 239t-34 188q-64 274 -198 414q-80 82 -194 124t-238 36l-194 -6l16 -404l194 10q58 2 86 -8t54 -38q60 -64 96 -222q22 -92 37 -247t21 -277t16 -360h-652h-194z" />
<glyph unicode="&#x5e1;" horiz-adv-x="1950" vert-adv-y="180" d="M40 1244l116 -4q-12 -236 -10 -416q6 -266 38 -462q20 -132 50 -228t92 -178q176 -236 502 -280q84 -12 200 -8q26 0 68 2h24h-6q48 -2 99 3t136 23t174 70t165 134q86 96 129 218t69 288q46 284 10 532q-38 266 -184 454q-82 106 -195 171t-243 67l-1034 14l-196 4z M536 834q-4 172 10 402l720 -10q76 -2 142 -86q82 -106 104 -260q28 -190 -8 -410q-14 -96 -47 -182t-55 -110q-40 -46 -102 -71t-100 -29t-70 -4q-16 2 -114 -2q-80 -2 -138 6q-168 22 -246 126q-10 14 -31 80t-33 144q-28 168 -32 406z" />
<glyph unicode="&#x5e2;" horiz-adv-x="1770" vert-adv-y="180" d="M40 -264l150 -372l180 80q72 30 196 60t233 54t246 81t249 139q264 200 366 584q108 404 48 1082l-16 200l-386 -36l16 -200q54 -604 -36 -938q-38 -140 -92 -224t-128 -142q-52 -38 -142 -72l-280 1434l-38 198l-382 -80l40 -198l284 -1464q-202 -52 -328 -108z" />
<glyph unicode="&#x5e3;" horiz-adv-x="1580" vert-adv-y="180" d="M40 1148q0 -144 14 -254q8 -54 14 -85t22 -78t40 -89q34 -56 80 -98t99 -67t93 -37t92 -22q50 -10 101 -14t79 -4h26l196 8l-12 402l-196 -6q-56 -2 -120 10q-18 4 -36 10t-31 12t-23 11t-14 8l-4 3q0 2 -2 10q-12 46 -18 82q-10 92 -12 198q0 4 4 76h344q118 0 176 -23 t96 -73q78 -102 98 -364q12 -172 -8 -694t-8 -846l8 -202l388 16l-8 202q-12 284 9 808t5 746q-14 184 -54 327t-126 257q-94 120 -243 184t-333 64h-532l-192 -180q-2 -16 -4 -43t-5 -106t-3 -149z" />
<glyph unicode="&#x5e4;" horiz-adv-x="1646" vert-adv-y="180" d="M40 74v-404h194h528h4q198 6 363 96t273 238q202 274 204 654q4 378 -190 648q-106 146 -267 233t-351 87h-532l-192 -180q-2 -16 -4 -43t-5 -106t-3 -149q0 -144 14 -254q8 -54 13 -85t21 -78t42 -89q34 -56 80 -98t99 -67t93 -37t92 -22q50 -10 101 -14t79 -4h26l194 8 l-14 402l-194 -6q-54 -2 -118 10q-18 4 -36 10t-31 12t-23 11t-14 8l-4 3q0 2 -2 6q-14 48 -20 86q-8 72 -10 198q0 4 2 76h346q106 0 176 -39t128 -119q54 -76 85 -184t31 -222q0 -116 -33 -224t-91 -188q-122 -166 -332 -174h-3h-3h-522h-194z" />
<glyph unicode="&#x5e5;" horiz-adv-x="1366" vert-adv-y="180" d="M40 1568l52 -194l396 -1522l-10 -626l-4 -202l390 -4l2 202l10 648l-8 56l-114 442q236 54 382 236q124 156 168 384q20 112 21 230t-7 182l-10 62l-34 200l-384 -74l36 -198q26 -164 -4 -324q-24 -128 -86 -204q-62 -80 -184 -102l-186 718l-52 196z" />
<glyph unicode="&#x5e6;" horiz-adv-x="1658" vert-adv-y="180" d="M40 74v-404h194h1196l158 320l-322 470q94 60 162 144q124 156 166 384q22 112 23 230t-9 182l-8 62l-34 200l-384 -74l36 -198q26 -164 -4 -324q-24 -128 -86 -204q-32 -42 -88 -68l-512 750l-112 164l-318 -236l114 -164l566 -828l22 -154l76 14l180 -266h-822h-194z " />
<glyph unicode="&#x5e7;" horiz-adv-x="1838" vert-adv-y="180" d="M40 676v-1438v-202h388v202v1438v200h-388v-200zM44 1222h196h572q420 0 498 -32q20 -8 25 -12t15 -18q24 -40 52 -146q18 -66 -18 -184t-122 -254q-154 -244 -460 -560l-138 -142l274 -286l136 142q342 354 514 626q128 204 183 390t7 374q-46 172 -106 264 q-78 124 -218 182q-36 16 -72 26t-83 17t-77 11t-92 5t-91 2t-111 0t-116 -1h-572h-196v-404z" />
<glyph unicode="&#x5e8;" horiz-adv-x="1808" vert-adv-y="180" d="M40 1624l8 -404l194 4q84 0 245 5t233 6t166 0t154 -5q210 -14 258 -72q58 -70 74 -342q4 -96 6 -221t1 -361t-1 -362v-202l390 4v202q-2 128 -1 358t0 363t-7 243q-12 204 -47 341t-123 241q-88 106 -217 153t-305 59q-74 6 -175 6t-180 -1t-233 -6t-246 -7z" />
<glyph unicode="&#x5e9;" horiz-adv-x="2166" vert-adv-y="180" d="M40 -100l184 -212q28 -2 80 -4q152 -8 227 -11t205 -6t204 2t181 18t182 35t158 58t155 84q272 184 394 574q114 364 116 986v202l-388 4v-202q-2 -562 -98 -866q-42 -138 -100 -221t-138 -139q-122 -82 -355 -104t-611 -8q2 42 10 270q160 16 295 75t228 144t154 180 t93 199q36 116 46 242t2 192l-10 68l-30 200l-384 -68l30 -200q4 -18 6 -48t-3 -112t-27 -150q-18 -62 -41 -106t-66 -89t-113 -74t-168 -45q4 252 2 434q-2 132 -8 192q-4 50 -12 82t-24 62q-56 104 -170 106l-194 6l-8 -404h26q0 -8 1 -22t1 -26q2 -210 -6 -526z" />
<glyph unicode="&#x5ea;" horiz-adv-x="1946" vert-adv-y="180" d="M40 -312l194 -4q28 -2 77 -5t77 -4t71 3t83 12q110 26 178 102q64 70 92 184q40 154 45 462t-1 798q198 2 324 -6q208 -14 256 -72q58 -70 74 -342q6 -96 7 -221t0 -361t1 -362v-202l388 2v202q0 130 1 360t-1 363t-8 243q-10 204 -46 341t-124 241q-88 106 -217 153 t-305 59q-134 10 -350 6h-12l-376 2v-12q-12 -2 -43 -2t-53 -2l-194 -2l8 -404l194 2q18 2 46 2t42 2q-4 -1034 -32 -1142q-38 -2 -192 2l-194 6z" />
<glyph unicode="&#x2000;" horiz-adv-x="1164" vert-adv-y="0" />
<glyph unicode="&#x2001;" horiz-adv-x="2328" vert-adv-y="0" />
<glyph unicode="&#x2002;" horiz-adv-x="1164" vert-adv-y="0" />
<glyph unicode="&#x2003;" horiz-adv-x="2328" vert-adv-y="0" />
<glyph unicode="&#x2004;" horiz-adv-x="776" vert-adv-y="0" />
<glyph unicode="&#x2005;" horiz-adv-x="582" vert-adv-y="0" />
<glyph unicode="&#x2006;" horiz-adv-x="388" vert-adv-y="0" />
<glyph unicode="&#x2007;" horiz-adv-x="388" vert-adv-y="0" />
<glyph unicode="&#x2008;" horiz-adv-x="291" vert-adv-y="0" />
<glyph unicode="&#x2009;" horiz-adv-x="465" vert-adv-y="0" />
<glyph unicode="&#x200a;" horiz-adv-x="129" vert-adv-y="0" />
<glyph unicode="&#x2010;" vert-adv-y="80" d="M40 254h194l396 -4h194l4 404h-196l-396 4h-194z" />
<glyph unicode="&#x2011;" vert-adv-y="80" d="M40 254h194l396 -4h194l4 404h-196l-396 4h-194z" />
<glyph unicode="&#x2012;" vert-adv-y="80" d="M40 254h194l396 -4h194l4 404h-196l-396 4h-194z" />
<glyph unicode="&#x2013;" horiz-adv-x="1104" vert-adv-y="80" d="M40 254h252l515 -4h252l5 404h-255l-514 4h-252z" />
<glyph unicode="&#x2014;" horiz-adv-x="2128" vert-adv-y="80" d="M40 254h504l1029 -4h505l10 404h-509l-1030 4h-504z" />
<glyph unicode="&#x202f;" horiz-adv-x="465" vert-adv-y="0" />
<glyph unicode="&#x205f;" horiz-adv-x="582" vert-adv-y="0" />
<glyph unicode="&#xe000;" horiz-adv-x="1000" vert-adv-y="2000" d="M0 0z" />
</font>
</defs>
</svg>
